<svg xmlns="http://www.w3.org/2000/svg" width="30" height="30" viewBox="0 0 30 30">
  <g id="Group_2037" data-name="Group 2037" transform="translate(-1102 -1516)">
    <rect id="Rectangle_128" data-name="Rectangle 128" width="30" height="30" transform="translate(1102 1516)" fill="#1d5ea9"/>
    <path id="Path_3104" data-name="Path 3104" d="M1127.929,1531.163a10.881,10.881,0,0,1-7.5,10.355c-.075.018-.469.018-.535.018-.408,0-.876-.287-.876-.538v-.6c0-.558.337-1.4.337-2.389a2.679,2.679,0,0,0-.569-2.017c2.313-.261,5.064-1.106,5.064-5.4a4.181,4.181,0,0,0-1.075-2.928,3.985,3.985,0,0,0-.092-2.9,1.05,1.05,0,0,0-.231-.018,5.246,5.246,0,0,0-2.746,1.142,10.242,10.242,0,0,0-5.463,0,5.3,5.3,0,0,0-2.758-1.142,1.631,1.631,0,0,0-.242.018,3.905,3.905,0,0,0-.1,2.9,4.2,4.2,0,0,0-1.125,2.928,5.114,5.114,0,0,0,1.581,4.173,6.129,6.129,0,0,0,3.4,1.228,2.373,2.373,0,0,0-.7,1.469,3.137,3.137,0,0,1-1.247.288c-.818,0-1.469.255-1.933-.535a2.825,2.825,0,0,0-1.673-.461h-.009c-.046,0-.436-.664-.483-.5-.037.112.1-.053.408.162.009.008.734.185,1.219,1.431a2.3,2.3,0,0,0,.511.718,2.736,2.736,0,0,0,2.072.759,5.327,5.327,0,0,0,1.1-.151c.009.51.009.956.009,1.281.008.26.008.451.008.562a.576.576,0,0,1-.129.368.538.538,0,0,1-.427.176,1.283,1.283,0,0,1-.187-.021,10.933,10.933,0,1,1,14.39-10.373Z" transform="translate(-0.058 -0.23)" fill="#f8f8f8"/>
  </g>
</svg>
