<svg xmlns="http://www.w3.org/2000/svg" width="100%" height="100%" viewBox="0 0 474.843 142.366" preserveAspectRatio="xMinYMin meet">
  <g id="logo-cp" transform="translate(-415.123 -1740.659)">
    <g id="Group_2002" data-name="Group 2002">
      <g id="Group_2001" data-name="Group 2001">
        <g id="Group_1999" data-name="Group 1999">
          <g id="Group_1998" data-name="Group 1998">
            <path id="Path_3164" data-name="Path 3164" d="M653.153,1815.83l1.518-2.068a5.586,5.586,0,0,0,3.976,1.571c1.492,0,2.643-.524,2.643-1.466,0-1.047-1.308-1.387-2.877-1.753-2.147-.5-4.842-1.177-4.842-4.108,0-2.748,2.434-4.108,5.312-4.108a7.889,7.889,0,0,1,5.077,1.779l-1.544,2.067a5.281,5.281,0,0,0-3.48-1.308c-1.309,0-2.382.445-2.382,1.361,0,1.046,1.282,1.36,2.9,1.726,2.146.471,4.814,1.152,4.814,4.056,0,2.774-2.459,4.291-5.573,4.291a8.225,8.225,0,0,1-5.547-2.04" fill="#005eb2"/>
            <path id="Path_3165" data-name="Path 3165" d="M665.949,1810.884a6.909,6.909,0,0,1,7.144-6.986,7.007,7.007,0,0,1,6.123,3.323l-2.538,1.544a4.161,4.161,0,1,0,0,4.238l2.538,1.545a7.008,7.008,0,0,1-6.123,3.323,6.909,6.909,0,0,1-7.144-6.987" fill="#005eb2"/>
            <path id="Path_3166" data-name="Path 3166" d="M689.161,1804v3.009h-.5a3.808,3.808,0,0,0-4.16,4.056v6.49h-2.932v-13.345H684.5v1.962a5,5,0,0,1,4.16-2.172Z" fill="#005eb2"/>
            <path id="Path_3167" data-name="Path 3167" d="M701.382,1810.884a4.121,4.121,0,1,0-4.109,4.161,4.046,4.046,0,0,0,4.109-4.161m2.931-6.672v13.344h-2.931v-1.91a5.82,5.82,0,0,1-4.684,2.225c-3.768,0-6.568-3.01-6.568-6.987s2.8-6.986,6.568-6.986a5.823,5.823,0,0,1,4.684,2.224v-1.91Z" fill="#005eb2"/>
            <path id="Path_3168" data-name="Path 3168" d="M728.833,1808.9v8.661H725.9v-7.8a2.81,2.81,0,0,0-2.957-3.036,2.96,2.96,0,0,0-3.166,3.088v7.746h-2.931v-7.8a2.81,2.81,0,0,0-2.957-3.036,2.961,2.961,0,0,0-3.166,3.088v7.746h-2.93v-13.345h2.93v1.57a5.1,5.1,0,0,1,4.135-1.884,4.68,4.68,0,0,1,4.291,2.355,5.448,5.448,0,0,1,4.684-2.355,4.7,4.7,0,0,1,5,5" fill="#005eb2"/>
            <path id="Path_3169" data-name="Path 3169" d="M740.977,1809.655h7.772a3.981,3.981,0,0,0-7.772,0m10.834,2.407H741a4.2,4.2,0,0,0,4.291,3.166,5.118,5.118,0,0,0,4-1.832l1.989,1.7a7.7,7.7,0,0,1-6.07,2.773,7.041,7.041,0,0,1-7.379-7.038,7.026,7.026,0,0,1,14.051.079,8.56,8.56,0,0,1-.078,1.151" fill="#005eb2"/>
            <rect id="Rectangle_136" data-name="Rectangle 136" width="2.93" height="22.526" transform="translate(732.264 1804.211)" fill="#005eb2"/>
            <path id="Path_3170" data-name="Path 3170" d="M755.11,1817.557h2.931v-10.676h2.314v-2.669h-2.314v-4.919H755.11v4.919h-2.25v2.669h2.25Z" fill="#005eb2"/>
            <rect id="Rectangle_137" data-name="Rectangle 137" width="2.93" height="2.931" transform="translate(732.264 1799.292)" fill="#005eb2"/>
          </g>
        </g>
        <g id="Group_2000" data-name="Group 2000">
          <path id="Path_3171" data-name="Path 3171" d="M696.693,1846.352a9.714,9.714,0,0,1-4.609,1.129,11.208,11.208,0,0,1-8.216-3.041,11.206,11.206,0,0,1,0-15.8,11.1,11.1,0,0,1,7.808-3.01,12.434,12.434,0,0,1,5.017,1.161v5.581a6.626,6.626,0,0,0-4.891-2.226,5.87,5.87,0,0,0-4.265,1.63,6.7,6.7,0,0,0-1.975,4.83,6.118,6.118,0,0,0,6.334,6.365,6.6,6.6,0,0,0,4.8-2.164Z" fill="#ff8000"/>
          <path id="Path_3172" data-name="Path 3172" d="M704.66,1824.151v22.86h-4.515v-22.86Z" fill="#ff8000"/>
          <path id="Path_3173" data-name="Path 3173" d="M721.938,1845.224a9.411,9.411,0,0,1-12.229,0,7.5,7.5,0,0,1,0-10.411,9.411,9.411,0,0,1,12.229,0,7.5,7.5,0,0,1,0,10.411Zm-8.654-7.84a3.869,3.869,0,0,0,0,5.268,3.475,3.475,0,0,0,2.571,1,3.429,3.429,0,0,0,2.509-1,3.872,3.872,0,0,0,0-5.268,3.718,3.718,0,0,0-5.08,0Z" fill="#ff8000"/>
          <path id="Path_3174" data-name="Path 3174" d="M731.379,1833.026v7.714a2.944,2.944,0,0,0,.784,2.257,2.662,2.662,0,0,0,1.882.659,2.8,2.8,0,0,0,1.912-.659,3.044,3.044,0,0,0,.753-2.257v-7.714h4.515v8.153a5.612,5.612,0,0,1-1.568,4.484c-1.6,1.568-3.951,1.818-5.612,1.818-1.725,0-4.046-.25-5.645-1.818a5.356,5.356,0,0,1-1.536-4.2v-8.435Z" fill="#ff8000"/>
          <path id="Path_3175" data-name="Path 3175" d="M759.979,1847.011h-4.515v-1.693a4.975,4.975,0,0,1-4.422,2.163,6.277,6.277,0,0,1-4.8-1.912,7.837,7.837,0,0,1-2.2-5.614,7.474,7.474,0,0,1,2.2-5.519,7.047,7.047,0,0,1,4.86-1.88,5.219,5.219,0,0,1,4.359,2.038v-10.443h4.515Zm-10.191-9.627a3.6,3.6,0,0,0-1.1,2.666,3.54,3.54,0,0,0,1.1,2.571,3.463,3.463,0,0,0,2.352.972,3.852,3.852,0,0,0,2.571-1.035,3.4,3.4,0,0,0,1.035-2.508,3.607,3.607,0,0,0-1-2.572,3.317,3.317,0,0,0-2.54-1.035A3.282,3.282,0,0,0,749.788,1837.384Z" fill="#ff8000"/>
          <path id="Path_3176" data-name="Path 3176" d="M778.827,1826.1a7.855,7.855,0,0,1,5.487,1.724,6.432,6.432,0,0,1,2.039,5.08,6.723,6.723,0,0,1-1.788,4.923,7.125,7.125,0,0,1-5.331,1.85h-2.947v7.338h-4.829V1826.1Zm-2.54,9.626h1.725a3.7,3.7,0,0,0,2.6-.783,2.912,2.912,0,0,0,.785-2.07,2.757,2.757,0,0,0-.785-2.038,3.766,3.766,0,0,0-2.7-.784h-1.631Z" fill="#ff8000"/>
          <path id="Path_3177" data-name="Path 3177" d="M793.5,1824.151v22.86h-4.515v-22.86Z" fill="#ff8000"/>
          <path id="Path_3178" data-name="Path 3178" d="M807.866,1833.026h4.515v13.985h-4.515v-1.693a4.66,4.66,0,0,1-4.139,2.163,6.627,6.627,0,0,1-5.237-2.132,7.4,7.4,0,0,1-2.038-5.236,7.968,7.968,0,0,1,2.163-5.645,6.745,6.745,0,0,1,4.861-1.912,5.246,5.246,0,0,1,4.39,2.038Zm-5.738,4.421a3.492,3.492,0,0,0-1.035,2.54,3.611,3.611,0,0,0,.94,2.509,3.713,3.713,0,0,0,2.666,1.1,3.343,3.343,0,0,0,2.352-.972,3.711,3.711,0,0,0,.062-5.2,3.775,3.775,0,0,0-2.508-.973A3.557,3.557,0,0,0,802.128,1837.447Z" fill="#ff8000"/>
          <path id="Path_3179" data-name="Path 3179" d="M820.536,1836.663v10.348h-4.515v-10.348h-1.568v-3.637h1.568v-4.516h4.515v4.516h2.791v3.637Z" fill="#ff8000"/>
          <path id="Path_3180" data-name="Path 3180" d="M831.135,1836.663v10.348H826.62v-10.348h-1.63v-3.637h1.63v-2.76a6.619,6.619,0,0,1,1.568-4.86,5.15,5.15,0,0,1,3.92-1.6,7.1,7.1,0,0,1,2.571.471v3.951a3.468,3.468,0,0,0-1.724-.533,1.627,1.627,0,0,0-1.317.564,4.207,4.207,0,0,0-.5,2.415v2.352h3.576v3.637Z" fill="#ff8000"/>
          <path id="Path_3181" data-name="Path 3181" d="M850.107,1845.224a9.411,9.411,0,0,1-12.229,0,7.5,7.5,0,0,1,0-10.411,9.411,9.411,0,0,1,12.229,0,7.5,7.5,0,0,1,0,10.411Zm-8.654-7.84a3.869,3.869,0,0,0,0,5.268,3.475,3.475,0,0,0,2.571,1,3.427,3.427,0,0,0,2.509-1,3.869,3.869,0,0,0,0-5.268,3.718,3.718,0,0,0-5.08,0Z" fill="#ff8000"/>
          <path id="Path_3182" data-name="Path 3182" d="M855.033,1833.026h4.515v2.195a5.008,5.008,0,0,1,1.756-1.944,4.325,4.325,0,0,1,2.415-.6,4.532,4.532,0,0,1,1.474.219l-.251,4.233a4.27,4.27,0,0,0-2.038-.5,2.95,2.95,0,0,0-2.258.94,5.312,5.312,0,0,0-1.1,3.763v5.676h-4.515Z" fill="#ff8000"/>
          <path id="Path_3183" data-name="Path 3183" d="M867.075,1833.026h4.516v1.63a4.412,4.412,0,0,1,3.919-1.975,5.2,5.2,0,0,1,2.634.627,4.135,4.135,0,0,1,1.694,1.944,5.374,5.374,0,0,1,4.766-2.571,4.845,4.845,0,0,1,5.362,5.487v8.843h-4.515v-7.087a4.61,4.61,0,0,0-.6-2.728,2.073,2.073,0,0,0-1.63-.753,2.168,2.168,0,0,0-1.756.847,4.493,4.493,0,0,0-.69,2.76v6.961h-4.515v-7.275a3.77,3.77,0,0,0-.721-2.728,2.031,2.031,0,0,0-1.505-.565,2.2,2.2,0,0,0-1.568.565,4.244,4.244,0,0,0-.878,2.853v7.15h-4.516Z" fill="#ff8000"/>
        </g>
      </g>
    </g>
    <g id="Group_2003" data-name="Group 2003">
      <path id="Path_3184" data-name="Path 3184" d="M619.763,1780.577c-9.523-8.429-17.684-11.7-45.615-12.338s-59.69-.931-62.8.19c-2.616.944-51.461,73.868-51.72,77.714s9.034,21.28,23.775,28.17,40.379,9.614,44.706,5.609,2.7-25.806.076-27.9-21.708,2.418-31.322-7.517-8.517-26.078-2.118-36.078c7.726-12.071,23.269-11.67,31.921-11.67s14.561.44,15.7,1.522c1.921,1.819-1.282,81.678.961,83.5s33.649,1.38,35.091.319.16-28.3,1.121-29.9,22.753,3.045,40.379-10.9S634.065,1793.235,619.763,1780.577Zm-21.79,31.886c-1.043,14.264-20.51,12.018-21.471,11.376s-1.226-25.527,0-26.117C580.828,1795.639,599.095,1797.1,597.973,1812.463Z" fill="#1770c9"/>
      <path id="Path_3185" data-name="Path 3185" d="M451.662,1846.081c.126,2.265-22.951,29.884-23.608,29.219s15.88-26.429,14.772-27.069-12.318,14.136-14.021,13.482,4.754-18.835,3.86-19.275-15.318,25.331-16.932,24.906,8.849-26.618,14.778-32.819,21.022,9.288,21.151,11.556" fill="#ef7e16"/>
      <path id="Path_3186" data-name="Path 3186" d="M511.335,1741.314s-63.97,95.782-65.1,95.568-12.036-9.255-13.011-10.063,7.273-9.022,5.378-11.178-10.421-14.23-10.185-15.638,31.452-11.485,33.242-12.976,49.681-45.713,49.681-45.713" fill="#5586be"/>
      <path id="Path_3187" data-name="Path 3187" d="M511.335,1741.314c-1.106-1.148-45.973,46.114-48.923,47.656s-29.737,10.82-32.4,13.437,9.41,15.677,8.985,17.29-4.506,5.31-4.176,6.5,11.022,9.422,13.051,8.889S512.439,1742.462,511.335,1741.314Z" fill="none" stroke="#1d5ea9" stroke-linecap="round" stroke-linejoin="round" stroke-width="1.446"/>
      <path id="Path_3188" data-name="Path 3188" d="M431.835,1835.556c-2.828.817-16.9,29.068-16.081,29.809s19.283-24.115,20.005-23.607-6.932,17.315-6.187,18.207,14.633-12.419,15.173-11.713-17.086,27.728-15.765,27.739,22.756-24.8,22.658-27.215S434.663,1834.738,431.835,1835.556Z" fill="none" stroke="#1d5ea9" stroke-linecap="round" stroke-linejoin="round" stroke-width="1.446"/>
      <path id="Path_3189" data-name="Path 3189" d="M508.875,1764.651c-.96.429-50.014,71.658-50.2,73.044s3.612,10.337,10.887,19.953c3.362,4.443,11.951,13.3,24.018,17.067,14.043,4.388,31.575,3.346,32.052,3.051.822-.509.035-29.61-.236-30.091s-8.112-.09-13.99-.441c-3.608-.214-11.492-1.874-17.273-10.542s-6.532-17.831-2.641-26.378,11.942-15.108,20.174-15.522,27.257-.069,27.4.1-.135,82.623.143,82.878,33.752.708,34.44,0-.527-30.357,0-30.744,12,.152,19.2-.7,24.842-4.927,33.809-19.675,5.832-33.053.909-41.365-14.387-14.6-21.151-16.983c-3.264-1.151-10.759-3.782-33.285-4.061C548.537,1763.934,509.784,1764.245,508.875,1764.651Z" fill="none" stroke="#1d5ea9" stroke-linecap="round" stroke-linejoin="round" stroke-width="1.446"/>
      <path id="Path_3190" data-name="Path 3190" d="M573.977,1794.994c-.463.41-.361,24.117,0,24.56s6.125.58,9.3.288a12.156,12.156,0,0,0,9.481-5.232,13.319,13.319,0,0,0,1.851-10.349,11.311,11.311,0,0,0-7.632-8.534C582.509,1794.257,574.638,1794.41,573.977,1794.994Z" fill="none" stroke="#1d5ea9" stroke-linecap="round" stroke-linejoin="round" stroke-width="1.446"/>
    </g>
  </g>
</svg>
